<svg width="33" height="33" viewBox="0 0 33 33" fill="none" xmlns="http://www.w3.org/2000/svg">
<g id="SVG">
<path id="Vector" d="M12 8.18994H10C9.46957 8.18994 8.96086 8.40066 8.58579 8.77573C8.21071 9.1508 8 9.65951 8 10.1899V12.1899M12 8.18994V4.18994M12 8.18994H21M8 12.1899V21.1899M8 12.1899H4M21 8.18994H23C23.5304 8.18994 24.0391 8.40066 24.4142 8.77573C24.7893 9.1508 25 9.65951 25 10.1899V12.1899M21 8.18994V4.18994M25 12.1899H29M25 12.1899V21.1899M12 29.1899V25.1899M21 29.1899V25.1899M25 21.1899V23.1899C25 23.7204 24.7893 24.2291 24.4142 24.6042C24.0391 24.9792 23.5304 25.1899 23 25.1899H10C9.46957 25.1899 8.96086 24.9792 8.58579 24.6042C8.21071 24.2291 8 23.7204 8 23.1899V21.1899M25 21.1899H29M8 21.1899H4" stroke="white" stroke-width="3" stroke-linecap="round" stroke-linejoin="round"/>
</g>
</svg>
