<svg width="29" height="29" viewBox="0 0 29 29" fill="none" xmlns="http://www.w3.org/2000/svg">
<path d="M10 12.6899L14.5 7.68994M14.5 7.68994L19 12.6899M14.5 7.68994V20.6899M14.5 1.68994C17.8152 1.68994 20.9946 3.0069 23.3388 5.35111C25.683 7.69531 27 10.8747 27 14.1899C27 17.5051 25.683 20.6846 23.3388 23.0288C20.9946 25.373 17.8152 26.6899 14.5 26.6899C11.1848 26.6899 8.00537 25.373 5.66117 23.0288C3.31696 20.6846 2 17.5051 2 14.1899C2 10.8747 3.31696 7.69531 5.66117 5.35111C8.00537 3.0069 11.1848 1.68994 14.5 1.68994Z" stroke="white" stroke-width="3" stroke-linecap="round" stroke-linejoin="round"/>
</svg>
